<svg xmlns="http://www.w3.org/2000/svg" viewBox="0 0 622.13 385.96"><defs><style>.cls-1{fill:#fce200;stroke:#000;stroke-miterlimit:10;stroke-width:2.02px;}.cls-2{fill:#fff;}</style></defs><g id="Camada_2" data-name="Camada 2"><g id="Camada_1-2" data-name="Camada 1"><g id="Logo"><path class="cls-1" d="M448.15,210.75,256.53,378.34A24.67,24.67,0,0,1,240,385a24,24,0,0,1-22.08-33.51l57.76-134.76H191.93a24,24,0,0,1-15.82-42.12L367.74,7a24,24,0,0,1,37.9,27.57L347.89,169.3h83.76a24,24,0,0,1,22.51,15.59C458.29,193.55,455.67,204.14,448.15,210.75Z"/><path d="M61.47,123.82a33.67,33.67,0,0,1,.2-3.66,36.43,36.43,0,0,0,.19-3.66v-.71a8.12,8.12,0,0,1-.13-1.07c0-.54-.09-1.1-.13-1.68s-.09-1.14-.13-1.65-.06-.89-.06-1.1V107.6c0-.84,0-1.72,0-2.62s0-1.75-.06-2.53,0-1.29,0-1.55,0-.85-.07-1.65-.1-1.65-.16-2.56-.13-1.78-.19-2.62-.1-1.44-.1-1.78-.11-.65-.2-1a10.18,10.18,0,0,0-.32-1.17,3,3,0,0,0-.55-1,1.37,1.37,0,0,0-.94-.48c-.17,0-.47,0-.9,0l-1.36-.06-1.33-.07-.81,0-.39,0-.68.07-.71.06-.42,0H52c-1,0-1.49-.54-1.49-1.62V77.27l.26-.26,4.08-.13c1.21,0,2.58-.09,4.11-.13s3.08-.08,4.63-.1,3.06-.05,4.5-.1,2.69-.08,3.73-.13h9.45c.34.13.59.58.74,1.33a21.51,21.51,0,0,1,.33,2.49c.06.91.09,1.78.09,2.63v2.65a6.26,6.26,0,0,1-.09,1.07,1.78,1.78,0,0,1-.42.87,1.17,1.17,0,0,1-.91.36c-.22,0-.57,0-1.07.06s-1,.08-1.59.1-1.09.06-1.58.1-.85.06-1.07.06l-.94.07a2.54,2.54,0,0,0-.94.19.94.94,0,0,0-.29.1,1.37,1.37,0,0,1-.29.1v1.29c0,.61,0,1.23,0,1.88s0,1.27,0,1.88v1.29q0,7,.61,13.92t.61,14v4.07c0,.26,0,.59-.06,1s-.08.77-.1,1.16a13.52,13.52,0,0,1-.16,1.43l-.26.32-2.49.1-2.1.09c-.74.05-1.34.07-1.82.07H62.44l-.58-.58s-.08-.18-.1-.52,0-.76-.06-1.23-.05-1-.07-1.46,0-.89,0-1.2c0,0,0-.35-.06-.94S61.47,124.12,61.47,123.82Z"/><path d="M93,121.62c.09-2,.13-4,.13-6v-1.49a1.28,1.28,0,0,1-.23-.42,2.42,2.42,0,0,1,0-.42v-.26a.82.82,0,0,1,.13-.29.82.82,0,0,0,.13-.29,4.55,4.55,0,0,0-.13-.72,4.32,4.32,0,0,1-.13-.71v-.77c0-.87,0-2.17.07-3.92s.08-3.72.13-5.93.09-4.52.16-7,.13-4.75.19-7,.12-4.17.16-5.92.09-3,.13-3.85a.62.62,0,0,1,.52-.39,1.5,1.5,0,0,0,.58-.19,5.64,5.64,0,0,1,.78-.13l.58-.07h8.1a.89.89,0,0,1,.64.36,1.37,1.37,0,0,1,.39.68,2.87,2.87,0,0,1,.16.74c.07.41.12.72.17.94a5.88,5.88,0,0,1,.19,1.23c0,.56.07.89.07,1,0,.43,0,1.19.09,2.27s.13,2.22.2,3.43.13,2.35.19,3.43.1,1.84.1,2.27l.26.84A20.39,20.39,0,0,0,108.8,92a20.44,20.44,0,0,1,2.07-1.14,8.81,8.81,0,0,1,3-.74c1-.07,2.05-.1,3.17-.1a15.75,15.75,0,0,1,4,.45A18,18,0,0,1,124.79,92l.42.22a1.63,1.63,0,0,1,.42.3c.17.17.4.39.68.68s.56.57.84.87l.78.81.42.42c.26.52.47.94.62,1.26l.45,1q.22.5.36.75c0,.21.13.54.26,1a6,6,0,0,1,.19.71,4.34,4.34,0,0,1,.1.75c0,.36,0,.75.09,1.16s.08.8.1,1.17a4.18,4.18,0,0,0,.1.81c0,.21,0,.74,0,1.58s0,1.75,0,2.72v2.72a10,10,0,0,0,.07,1.59q0,.26,0,1.23c0,.64,0,1.34.07,2.07s0,1.43.06,2.1,0,1.09,0,1.27v7.18q0,.52,0,1.17c0,.43-.05.88-.1,1.36s-.06,1.06-.06,1.62l-1.17,1.16H122a26.05,26.05,0,0,1-4.17-.32c-.13,0-.2-.09-.2-.26V131q0-4.78.39-9.45c.26-3.11.39-6.21.39-9.32V108a4.9,4.9,0,0,1-.13-.84,2.23,2.23,0,0,0-.19-.84c0-.18-.12-.43-.23-.78s-.22-.69-.32-1-.22-.65-.33-.94A2.36,2.36,0,0,1,117,103a4.54,4.54,0,0,1-.65-.55l-.77-.74a3.36,3.36,0,0,0-.46-.36,1.24,1.24,0,0,0-.38-.22h-3.31a2.49,2.49,0,0,0-.51.22,2.38,2.38,0,0,0-.59.36,8.44,8.44,0,0,0-1.78,1.81,11.34,11.34,0,0,0-1.13,2,14.36,14.36,0,0,0-.74,2.27c-.2.8-.38,1.61-.56,2.43a3.64,3.64,0,0,1-.12.61c-.09.32-.19.67-.3,1l-.29,1a4.2,4.2,0,0,0-.13.62,3.27,3.27,0,0,1-.13.77,5.17,5.17,0,0,0-.13.65c0,.26-.08.64-.13,1.14s-.09,1-.16,1.48-.12.94-.16,1.33a2.81,2.81,0,0,1-.13.71c0,.44,0,1.18,0,2.24s0,2.17-.07,3.33,0,2.28-.06,3.34,0,1.8,0,2.23a5.7,5.7,0,0,1-.33.55.6.6,0,0,1-.51.29h-10l-.58-.58v-3.5C92.87,125.59,92.91,123.6,93,121.62Z"/><path d="M140.85,110.42a15.57,15.57,0,0,1,.48-4q.49-1.78,1.2-4.05c0-.13.11-.34.2-.65s.19-.62.32-1,.25-.69.36-1,.18-.59.22-.71a8.21,8.21,0,0,1,1.49-2.37l1.81-2.1a18.33,18.33,0,0,1,4.34-3.34A31.39,31.39,0,0,1,156.39,89a11.53,11.53,0,0,1,3.14-.55c1,0,2.08,0,3.2,0h.71l1.1,0c.39,0,.77,0,1.14,0h.74a16.92,16.92,0,0,1,4.18,1.23,24.06,24.06,0,0,1,4,2.2,20.68,20.68,0,0,1,3.5,3,17.43,17.43,0,0,1,2.62,3.56,19,19,0,0,1,2.59,9.58q0,1.1-.06,2a5.64,5.64,0,0,1-.39,1.71,2.92,2.92,0,0,1-1,1.27,4.06,4.06,0,0,1-2,.61c-.22,0-.56,0-1,.07s-1,.07-1.49.09l-1.48.07-1,0-2.62,0c-1.19,0-2.52,0-4,0h-9.39c-1.49,0-2.83,0-4,0l-2.63,0c-.17.09-.26.2-.26.32v.26a11.16,11.16,0,0,0,2.3,4.86,8.08,8.08,0,0,0,4.57,2.59h.55l.87,0,.84,0h.59a22.86,22.86,0,0,0,4.3-.38,12,12,0,0,0,4-1.56,5.69,5.69,0,0,0,.65-.45c.35-.26.72-.53,1.13-.81l1.17-.78a5.46,5.46,0,0,0,.68-.48,1.39,1.39,0,0,1,.45-.29,1.66,1.66,0,0,1,.46,0,1.91,1.91,0,0,1,.51,0,1.4,1.4,0,0,1,.46.29,5.76,5.76,0,0,0,.55.42l.9.64,1,.69a4.17,4.17,0,0,1,.68.51l1.62,1.2a1.94,1.94,0,0,1,.91,1.59,3.49,3.49,0,0,1-.1.9,1.3,1.3,0,0,1-.55.72l-.9.93c-.44.46-.9.93-1.4,1.43s-1,1-1.45,1.42l-1,.94a8,8,0,0,1-1.75,1.3,9.93,9.93,0,0,1-2.14.9,5.56,5.56,0,0,1-.81.26l-1,.26q-.59.19-1.17.33h-9.71a7.17,7.17,0,0,1-.74-.13l-.88-.2q-.9-.19-2-.48a19.48,19.48,0,0,1-1.94-.62,7.71,7.71,0,0,1-1.58-.84c-.5-.35-1-.69-1.46-1q-2.52-2.07-4.37-3.91a19.11,19.11,0,0,1-3-3.89,15.25,15.25,0,0,1-1.75-4.53A27.61,27.61,0,0,1,140.85,110.42ZM164,99a11.67,11.67,0,0,0-2.69.32,12.47,12.47,0,0,0-2.68,1,9.12,9.12,0,0,0-2.33,1.65,6.71,6.71,0,0,0-1.56,2.3v.32l1.14-.19a9.38,9.38,0,0,1,1.13-.13h7.45l1.55,0,2.33-.07,2.33-.06c.73,0,1.25-.06,1.55-.1v-.26a.94.94,0,0,0-.32-.78A13.49,13.49,0,0,0,168.4,100,9,9,0,0,0,164,99Z"/><path d="M215.11,130.23q0-.58-.06-2.07c-.05-1-.08-2-.1-3.18s-.06-2.19-.1-3.2-.06-1.72-.06-2.11c0-.08,0-.29,0-.61s-.05-.67-.09-1-.08-.71-.1-1,0-.53,0-.62v-5.5q0-.2,0-.75c0-.36.05-.77.1-1.23s.07-.86.09-1.23,0-.61,0-.74v-6c0-.09,0-.33,0-.71s.05-.81.1-1.27.08-.86.13-1.23.06-.59.06-.68V95.65q0-3.69-.16-7.31T214.79,81V77.85a1.14,1.14,0,0,1,.09-.29.55.55,0,0,1,.23-.29,4.16,4.16,0,0,1,1.68-.26h1.62q3.76,0,7.51.16t7.45.42l3.53.61A21.86,21.86,0,0,1,240,79a12.68,12.68,0,0,1,2.85,1.43,13.44,13.44,0,0,1,2.65,2.39c.13.18.42.53.87,1.07a10,10,0,0,1,.88,1.14,6.22,6.22,0,0,1,.9,2.71c.09,1,.13,1.9.13,2.85a22.64,22.64,0,0,1-.38,4,19.71,19.71,0,0,1-1.2,4,14,14,0,0,1-2.14,3.56,9.39,9.39,0,0,1-3.2,2.53l-1.17.55-1.62.74c-.56.26-1.08.51-1.55.75s-.78.38-.91.42l-1.07.39c-.62.21-1.09.38-1.39.51a1.5,1.5,0,0,1-.65.2l-.51.06c-.18,0-.48,0-.91.07s-.91.07-1.42.09l-1.46.07-.94,0c-.13.13-.35.37-.65.71s-.45.59-.45.72v20.2a.26.26,0,0,1-.23.29l-.35,0a1.25,1.25,0,0,1-.78-.32l-.94,0-1,0a15.07,15.07,0,0,0-3.76.46,15.28,15.28,0,0,1-3.69.45h-.58Zm11.27-40.92a28.2,28.2,0,0,0,.29,4.11c.19,1.36.4,2.71.61,4l.84.06c.43,0,.72.07.85.07a13,13,0,0,0,1.87-.17,9.22,9.22,0,0,0,2.11-.55,4.66,4.66,0,0,0,1.68-1.07,2.32,2.32,0,0,0,.68-1.71,4.27,4.27,0,0,0-.71-2.46,6.19,6.19,0,0,0-1.81-1.72,8.7,8.7,0,0,0-2.43-1,10.62,10.62,0,0,0-2.56-.32,7.78,7.78,0,0,0-.94.06C226.54,88.7,226.38,88.92,226.38,89.31Z"/><path d="M255.25,105a22.67,22.67,0,0,1,3.14-7.8,18.92,18.92,0,0,1,5.28-5.34,22.83,22.83,0,0,1,7-3.08,32.61,32.61,0,0,1,8.25-1h1.95A16.16,16.16,0,0,1,288,90.25a17.91,17.91,0,0,1,5.09,5,22.16,22.16,0,0,1,3,6.67,28.66,28.66,0,0,1,1,7.57c0,1.34,0,2.68-.13,4s-.24,2.67-.45,4a14,14,0,0,1-1.75,4.73,36.53,36.53,0,0,1-3,4.14A9.71,9.71,0,0,1,290,128a19.11,19.11,0,0,1-2.56,1.49,21.83,21.83,0,0,1-2.79,1.14,8.17,8.17,0,0,1-2.49.45h-3a38.76,38.76,0,0,1-4.89-.29c-1.48-.2-3.11-.47-4.88-.81a1.3,1.3,0,0,0-.39-.16,2.93,2.93,0,0,1-.46-.17l-.64-.25c-.31-.13-.64-.3-1-.49l-1-.55c-.3-.17-.52-.3-.65-.39l-.45-.23a1.68,1.68,0,0,1-.39-.22l-.87-.88c-.41-.41-.84-.86-1.3-1.36s-.89-.94-1.33-1.36L260,123a14.07,14.07,0,0,1-2.3-3.2,18.17,18.17,0,0,1-1.46-3.69,27,27,0,0,1-.74-3.89,34.62,34.62,0,0,1-.23-3.92Zm12.43,2.59v1.65a5.22,5.22,0,0,0,.33,1.59c0,.13.12.38.22.74s.24.77.39,1.2.29.86.42,1.3a5.67,5.67,0,0,0,.33.9,1.82,1.82,0,0,1,.16.26,1,1,0,0,0,.16.26,6,6,0,0,0,.49.58c.23.26.48.52.74.78l.74.74a2.37,2.37,0,0,0,.49.42,1.81,1.81,0,0,1,.62.33c.32.22.59.39.8.52a5.52,5.52,0,0,0,1.49.61,7.29,7.29,0,0,0,1.62.16,8.74,8.74,0,0,0,9.07-6.08,8.25,8.25,0,0,0,.55-2.79q0-1.48,0-2.85,0-.12,0-.42a2.9,2.9,0,0,1,0-.35,8.76,8.76,0,0,0-2.33-4.76,13.32,13.32,0,0,0-4.53-3,3.56,3.56,0,0,0-1.46-.32h-1.45a9.13,9.13,0,0,0-6.44,2.17A8.13,8.13,0,0,0,267.68,107.63Z"/><path d="M308,91.77c1.21-.26,2.59-.52,4.15-.78a26.36,26.36,0,0,1,4.34-.39,2.66,2.66,0,0,1,1,.2,1.45,1.45,0,0,1,.74.64l.49,1.2c.24.59.48,1.21.74,1.88s.51,1.29.75,1.88.4,1,.48,1.2a.93.93,0,0,1,.17.22.81.81,0,0,0,.16.23,8.34,8.34,0,0,1,.58,1.46,10,10,0,0,0,.52,1.39,8.34,8.34,0,0,0,.39.87c.21.45.44,1,.68,1.49s.46,1.06.68,1.55l.45,1.07a2.24,2.24,0,0,1,.32.68,1,1,0,0,0,.52.68,2.17,2.17,0,0,0,.33-.42,2.56,2.56,0,0,1,.25-.35c.13-.31.34-.74.62-1.3l.87-1.71q.45-.88.81-1.62a10.12,10.12,0,0,0,.42-.94c0-.13.2-.5.46-1.1s.52-1.25.81-2,.53-1.33.77-1.94.4-1,.49-1.16l.39-.81a3.48,3.48,0,0,1,.45-.81,2.08,2.08,0,0,0,.13-.46c0-.21.11-.34.19-.38a1.41,1.41,0,0,1,1-.59,8.15,8.15,0,0,1,1.72-.22c.63,0,1.25,0,1.88,0h2.72a2.52,2.52,0,0,1,1.26.33,1.41,1.41,0,0,1,.78,1.1c.08.17.27.63.55,1.36l.9,2.36c.33.84.62,1.63.88,2.37s.43,1.18.52,1.35a2.26,2.26,0,0,0,.19.62c.13.32.28.67.45,1s.33.71.46,1a2.36,2.36,0,0,1,.19.62,30.56,30.56,0,0,1,1.17,3.2,13.41,13.41,0,0,0,1.42,3.21s0,.09.1.16l.16.16a1,1,0,0,0,.16-.29.94.94,0,0,0,.1-.29c.17-.39.4-.89.68-1.49l.81-1.78c.26-.58.48-1.1.68-1.56a6.32,6.32,0,0,0,.29-.74c0-.13.16-.46.35-1s.41-1.13.65-1.75.44-1.22.62-1.78a5,5,0,0,1,.39-1,1.41,1.41,0,0,1,.16-.48c.1-.24.21-.51.32-.81s.22-.59.33-.84a2.93,2.93,0,0,1,.29-.59c.26-.73.57-1.53.94-2.39a12.26,12.26,0,0,1,1.26-2.33s.06,0,.06-.07a.19.19,0,0,1,.07-.13l.13-.13h5.57a5.81,5.81,0,0,0,1.45.26,15,15,0,0,1,1.75.23,3.91,3.91,0,0,1,1.49.58,1.42,1.42,0,0,1,.61,1.26,8.89,8.89,0,0,1-.32,2.37,14.53,14.53,0,0,1-.84,2.29l-11.14,26.81-2.13,4.73a1.84,1.84,0,0,1-.52.55,1.23,1.23,0,0,1-.65.29,9,9,0,0,1-1,.16,10.91,10.91,0,0,0-1.11.16l-.77,0-1.65.07-1.91.09c-.65,0-1.17.07-1.56.07h-.19a.82.82,0,0,1-.78-.49,5.14,5.14,0,0,1-.39-.93c-.13-.35-.33-1-.61-1.85s-.59-1.82-.91-2.82-.64-1.93-.94-2.81-.5-1.5-.58-1.85c-.43-1.38-.81-2.71-1.13-4a26.26,26.26,0,0,0-1.33-3.85,1.73,1.73,0,0,0-.32.55l-.26.55c-.05.13-.15.42-.33.87l-.52,1.43c-.17.49-.34,1-.51,1.39s-.28.69-.33.78a9.41,9.41,0,0,0-.45,1c-.22.52-.44,1.07-.68,1.65s-.48,1.13-.71,1.65-.38.84-.42,1-.15.46-.33,1-.36,1.1-.58,1.69-.42,1.13-.61,1.65-.32.84-.36,1-.27.54-.55,1.1a8.22,8.22,0,0,1-.62,1.1,2.37,2.37,0,0,1-.42.49,1,1,0,0,1-.68.35h-8l-.51-1.26c-.13-.32-.25-.64-.36-.94a2.17,2.17,0,0,1-.16-.65q-.84-2.91-1.88-5.66c-.69-1.84-1.38-3.72-2.07-5.67a4.1,4.1,0,0,0-.1-.51,4.18,4.18,0,0,1-.09-.59c-.18-.52-.47-1.39-.88-2.62L313,109.61c-.46-1.36-.89-2.64-1.3-3.82s-.68-2-.81-2.43c-.6-1.82-1.22-3.56-1.84-5.25s-1.2-3.43-1.72-5.24v-.2A1,1,0,0,1,308,91.77Z"/><path d="M372.89,110.42a15.13,15.13,0,0,1,.49-4q.48-1.78,1.2-4.05l.19-.65c.09-.3.19-.62.32-1s.25-.69.36-1,.18-.59.23-.71a8,8,0,0,1,1.49-2.37l1.81-2.1a18.14,18.14,0,0,1,4.34-3.34A31.27,31.27,0,0,1,388.43,89a11.6,11.6,0,0,1,3.14-.55q1.51,0,3.21,0h.71l1.1,0c.39,0,.76,0,1.13,0h.75a16.73,16.73,0,0,1,4.17,1.23,24.56,24.56,0,0,1,4,2.2,20.61,20.61,0,0,1,3.49,3,17.87,17.87,0,0,1,2.63,3.56,19.07,19.07,0,0,1,2.59,9.58c0,.73,0,1.41-.07,2a5.1,5.1,0,0,1-.39,1.71,2.9,2.9,0,0,1-1,1.27,4.06,4.06,0,0,1-2,.61c-.21,0-.56,0-1,.07s-1,.07-1.49.09l-1.49.07-1,0-2.62,0c-1.19,0-2.53,0-4,0h-9.39c-1.49,0-2.82,0-4,0l-2.62,0c-.18.09-.26.2-.26.32v.26a11.05,11.05,0,0,0,2.3,4.86,8.09,8.09,0,0,0,4.56,2.59h.55l.88,0,.84,0h.58a23,23,0,0,0,4.31-.38,12.13,12.13,0,0,0,4-1.56,6,6,0,0,0,.64-.45q.52-.39,1.14-.81L405,118a4.74,4.74,0,0,0,.68-.48,1.4,1.4,0,0,1,.46-.29,1.53,1.53,0,0,1,.45,0,2,2,0,0,1,.52,0,1.51,1.51,0,0,1,.45.29c.09.08.27.22.55.42l.91.64c.32.24.64.47,1,.69a4.68,4.68,0,0,1,.68.51l1.62,1.2a2,2,0,0,1,.9,1.59,4,4,0,0,1-.09.9,1.35,1.35,0,0,1-.55.72c-.18.17-.48.48-.91.93s-.9.93-1.39,1.43-1,1-1.46,1.42l-1,.94a8,8,0,0,1-1.75,1.3,9.86,9.86,0,0,1-2.13.9,6,6,0,0,1-.81.26l-1,.26c-.39.13-.77.24-1.16.33h-9.72c-.08,0-.33,0-.74-.13l-.87-.2q-.92-.19-2-.48a19.48,19.48,0,0,1-1.94-.62,8.06,8.06,0,0,1-1.59-.84l-1.46-1q-2.52-2.07-4.37-3.91a19.46,19.46,0,0,1-3-3.89,15.53,15.53,0,0,1-1.75-4.53A28.26,28.26,0,0,1,372.89,110.42ZM396,99a11.61,11.61,0,0,0-2.69.32,12.55,12.55,0,0,0-2.69,1,9.29,9.29,0,0,0-2.33,1.65,6.54,6.54,0,0,0-1.55,2.3v.32c.17,0,.55-.1,1.13-.19a9.38,9.38,0,0,1,1.13-.13h7.45l1.55,0,2.33-.07,2.33-.06c.74,0,1.26-.06,1.56-.1v-.26a1,1,0,0,0-.32-.78,13.52,13.52,0,0,0-3.47-2.94A8.91,8.91,0,0,0,396,99Z"/><path d="M425.53,92.61a6.5,6.5,0,0,1,.1-.84,6.23,6.23,0,0,1,.16-.84c0-.05,0-.1.13-.16s.13-.12.13-.17a9.46,9.46,0,0,1,2.59-.52q1.29-.06,2.52-.06l.72,0a8.63,8.63,0,0,0,.87,0c.28,0,.64,0,1.07.07l1.07.06c.58.05,1,.09,1.19.13.74.13,1.08.41,1,.85s-.07,1-.07,1.68h.33l1.1-.49,1.68-.77,1.69-.78c.51-.24.88-.4,1.1-.49a9.34,9.34,0,0,1,2.52-.64,23.15,23.15,0,0,1,2.53-.13,15.51,15.51,0,0,1,3,.32,15.87,15.87,0,0,1,3.07,1,11.94,11.94,0,0,1,2.72,1.62,8.16,8.16,0,0,1,2,2.33c.21.35.36.58.45.71a1.19,1.19,0,0,1,.13.65,1.82,1.82,0,0,1-.65,1.33c-.43.41-.77.72-1,.94-.09.08-.32.27-.68.55l-1.23.94c-.46.34-.9.69-1.33,1l-1,.78a10.09,10.09,0,0,1-1.36.84,3.38,3.38,0,0,1-1.55.32,5.39,5.39,0,0,1-1.69-.25,16.68,16.68,0,0,1-1.55-.62,13.34,13.34,0,0,0-1.59-.61,5.37,5.37,0,0,0-1.71-.26h-.72a.9.9,0,0,0-.64.32,14,14,0,0,0-2.79,3.11,11.85,11.85,0,0,0-1.42,3.27,16.21,16.21,0,0,0-.52,3.62c0,1.28-.06,2.69-.06,4.24v1c0,.38,0,.78,0,1.19s0,.77,0,1.07v.52c0,.26.12.92.23,2s.22,2.21.35,3.44.25,2.37.36,3.43.16,1.71.16,2v.84a.23.23,0,0,1-.26.26H427.47a.23.23,0,0,1-.26-.26c0-.17-.1-.49-.19-1a6.1,6.1,0,0,1-.13-1v-6c0-.3,0-.94,0-1.94s-.06-2.13-.1-3.43-.09-2.69-.13-4.17-.09-2.9-.13-4.21-.07-2.46-.1-3.43,0-1.63,0-2v-1a7.84,7.84,0,0,0-.1-.9c-.06-.48-.12-1-.19-1.52s-.13-1-.19-1.49a8.11,8.11,0,0,1-.1-.81V94.29s0-.15,0-.32-.06-.36-.1-.55-.08-.37-.1-.52S425.53,92.65,425.53,92.61Z"/><path d="M489.56,100.64c0-1,0-1.94.07-2.85a10.38,10.38,0,0,1,.52-2.78,19.23,19.23,0,0,1,2.62-5.54,62.7,62.7,0,0,1,3.78-5,12.64,12.64,0,0,1,1.88-1.75c.65-.47,1.4-1,2.27-1.55a30.72,30.72,0,0,1,6-3.14,18.12,18.12,0,0,1,6.7-1.26,40.7,40.7,0,0,1,7,.58,19.82,19.82,0,0,1,6.6,2.46,5.68,5.68,0,0,1,.69.52c.36.3.59.5.67.58q2.08,1.48,4.12,2.85A19.67,19.67,0,0,1,536.18,87s.08.16.26.35.35.42.55.68l.61.81c.22.28.37.49.46.62a4.1,4.1,0,0,0,.29.45,3.69,3.69,0,0,0,.29.39l.42.42a2.37,2.37,0,0,1,.42.49s0,.22,0,.55,0,.5,0,.55a4.58,4.58,0,0,0,.26.81c.17.45.28.72.32.81a1.93,1.93,0,0,0,.07.35,5.68,5.68,0,0,0,.16.62c.06.21.13.42.19.61a1.67,1.67,0,0,1,.1.36l.29.58a2,2,0,0,1,.23.58v1.3q0,.12,0,.42c0,.19.06.4.1.61s.07.42.1.62,0,.31,0,.35,0,.23,0,.56,0,.69,0,1.1,0,.82,0,1.23,0,.74,0,1c0,1.73-.07,3.6-.2,5.63a15.69,15.69,0,0,1-1.23,5.38c-.08.13-.19.32-.32.58s-.26.54-.39.84a8.22,8.22,0,0,1-.42.84,3.77,3.77,0,0,0-.29.58,2.88,2.88,0,0,1-.29.43,2.47,2.47,0,0,0-.29.42c-1,1.21-2.07,2.39-3.21,3.56s-2.28,2.29-3.4,3.36a11.3,11.3,0,0,1-2.59,1.82c-1,.52-1.9,1-2.72,1.49a12.64,12.64,0,0,1-4.69,1.39,46.29,46.29,0,0,1-4.82.29,31.26,31.26,0,0,1-7.9-1,25,25,0,0,1-7.19-3.17l-.68-.39c-.28-.17-.55-.36-.81-.55s-.48-.36-.68-.49A3.56,3.56,0,0,1,499,125a4.17,4.17,0,0,1-.68-.55c-.41-.36-.89-.81-1.45-1.33s-1.13-1-1.72-1.55l-1.45-1.29s0-.07-.13-.2l-.13-.13a5.35,5.35,0,0,1-.26-.81c-.13-.45-.22-.72-.26-.81-.52-1.25-1-2.43-1.55-3.56a18.16,18.16,0,0,1-1.23-3.69s-.06-.21,0-.52,0-.47,0-.51c-.18-1.6-.32-3.16-.43-4.7S489.56,102.24,489.56,100.64Zm12,7.44a3.27,3.27,0,0,0,.26.42,1,1,0,0,1,.19.43c.09,0,.15.18.2.42a.9.9,0,0,0,.13.42c0,.08.14.3.29.65s.31.72.48,1.13l.52,1.2c.17.38.3.67.39.84a11.11,11.11,0,0,0,2.07,3.36,7.43,7.43,0,0,0,2.62,1.82,11.56,11.56,0,0,0,3.24.74c1.19.11,2.49.16,3.92.16a18.87,18.87,0,0,0,6.83-1.19,12.88,12.88,0,0,0,5.47-4.31,4.8,4.8,0,0,1,.26-.45,1.42,1.42,0,0,0,.19-.39,12.38,12.38,0,0,0,.85-4q.06-2,.06-4.17v-.72c0-.34,0-.71,0-1.1s0-.76,0-1.13v-.74c-.09-.52-.24-1.26-.46-2.21a27,27,0,0,0-.84-2.94A22.11,22.11,0,0,0,527,93.45a4.41,4.41,0,0,0-1.35-1.75l-.46-.09c-.26-.07-.39-.12-.39-.17a2.53,2.53,0,0,1-.26-.42,1.15,1.15,0,0,0-.32-.42,2,2,0,0,0-.26-.35c-.13-.15-.24-.23-.32-.23a14.79,14.79,0,0,0-4-1.65,17.39,17.39,0,0,0-4.31-.55,17.69,17.69,0,0,0-5.5.84,13.59,13.59,0,0,0-4.57,2.49,12.21,12.21,0,0,0-3.14,4,12.52,12.52,0,0,0-1.16,5.5,34.79,34.79,0,0,0,.19,3.66Q501.35,106.21,501.54,108.08Z"/><path d="M557.45,129.94c0-.41,0-.86,0-1.33s0-.92,0-1.33,0-.7,0-.87,0-.88-.1-1.85-.13-2-.2-3.14-.12-2.18-.16-3.17-.06-1.62-.06-1.88c0-.52,0-1.43-.07-2.75s-.08-2.7-.13-4.14-.07-2.83-.09-4.15,0-2.23,0-2.75a2,2,0,0,0-.09-.45,1,1,0,0,0-.17-.39.18.18,0,0,1-.06-.1s0,0-.06-.1a.22.22,0,0,0-.13-.06h-4.15s-.09,0-.16-.13a1.19,1.19,0,0,0-.16-.19,4.55,4.55,0,0,1-.16-.72,4.07,4.07,0,0,1-.1-.71V91.44l.26-.25a14.29,14.29,0,0,0,2.85,0,14.9,14.9,0,0,0,2.72-.55c0-.21,0-.58,0-1.1s0-1.08,0-1.68,0-1.17,0-1.68,0-.89,0-1.1a4.89,4.89,0,0,1,.09-.52c.07-.3.14-.63.23-1s.17-.69.26-1a4.38,4.38,0,0,1,.26-.78c.82-2.54,2.12-4.24,3.92-5.08a15,15,0,0,1,6.44-1.26h1l.45.06.88.16,1,.2.74.16a12.09,12.09,0,0,1,1.56.39,22.17,22.17,0,0,1,2.26.81,13.82,13.82,0,0,1,2,1c.58.37.87.73.87,1.07,0,0,0,.07,0,.07s0,0,0,.06v.13c0,.09-.12.23-.23.42l-.35.68-.36.71a1.54,1.54,0,0,0-.16.39c0,.09-.13.31-.26.65l-.42,1.13q-.22.61-.45,1.17c-.16.37-.25.61-.3.74a.88.88,0,0,1-.9.78A7.94,7.94,0,0,1,574,86a8.24,8.24,0,0,0-1.65-.16,3.47,3.47,0,0,0-2.3.64,2.84,2.84,0,0,0-.74,2.21v1l.71,0,1.1.1c.39,0,.76.08,1.1.1l.71,0a2.8,2.8,0,0,0,.91.19,4.08,4.08,0,0,1,.78.13.23.23,0,0,1,.26.26v10.3l-.13.13-.13.13a2,2,0,0,0-.33.19.59.59,0,0,1-.26.13,3.66,3.66,0,0,0-.67.1l-1,.19c-.34.07-.67.12-1,.16a4.35,4.35,0,0,1-.65.07l-.45.32v27.91c0,.13-.15.34-.45.64l-.52.52-.75,0-1.19.1-1.2.1-.75,0h-1.68l-1.72,0c-.66,0-1.32-.06-2-.1l-2.33-.13-.32-.58Q557.42,130.55,557.45,129.94Z"/><path d="M170.51,317.09a22.43,22.43,0,0,1-.39-2.67c-.13-1.24-.3-2.56-.49-3.94s-.37-2.73-.5-4-.19-2.23-.19-2.76-.07-1.87-.2-4-.23-4.5-.3-7-.16-4.8-.29-6.9-.2-3.42-.2-3.95a32.73,32.73,0,0,0-.49-5.12c-.33-2-.69-3.75-1.09-5.32q-.39-2-1-7.3t-1.29-11.24q-.69-5.91-1.28-11.14c-.39-3.48-.66-5.94-.79-7.39a9.52,9.52,0,0,1-.39-2.27,8.58,8.58,0,0,0-.59-2.66,11.37,11.37,0,0,0-.4-2c-.13-.52-.26-1-.39-1.38h-.71A69.33,69.33,0,0,1,156,236a54.93,54.93,0,0,0-3.32,10,19.9,19.9,0,0,1-.49,2.83c-.33,1.5-.69,3.09-1.08,4.78s-.75,3.26-1.07,4.69-.56,2.34-.68,2.73c-.14.66-.56,2.19-1.27,4.59s-1.53,5-2.44,7.72-1.73,5.27-2.45,7.61-1.14,3.78-1.26,4.3q-2.55,8.4-4.3,16a54.47,54.47,0,0,1-6.05,15l-.39.39a.53.53,0,0,0-.2.39H102.09a1.33,1.33,0,0,1-1.28,0,9.5,9.5,0,0,1-1.29-1q-5.91-13.22-11.34-26.44T77.63,262.72a20.17,20.17,0,0,1-.79-2.17c-.4-1.19-.86-2.43-1.38-3.75s-1-2.56-1.38-3.75a10.58,10.58,0,0,1-.6-2.17,6.11,6.11,0,0,1-.69-1.38q-.5-1.19-1.08-2.37c-.4-.79-.76-1.54-1.09-2.27s-.56-1.21-.69-1.48q-1.19-3.34-2.17-6.9A26.36,26.36,0,0,0,65,230l-.79,1.58L62,251.87v2.56L54.74,307.5a10.86,10.86,0,0,0-.39,3c0,1.06,0,2.11-.1,3.16a20.35,20.35,0,0,1-.4,3,2.68,2.68,0,0,1-1.48,2,12.11,12.11,0,0,0-2.36.69c-1.32.46-2.24.76-2.77.89l-2.36.59a10.23,10.23,0,0,1-2,.28H19l-1.8-1a9.3,9.3,0,0,1-.2-1.77v-2.37a66.07,66.07,0,0,1,2.1-16.47,156.51,156.51,0,0,0,3.3-16.48c.13-.79.4-2.72.8-5.82s.83-6.47,1.3-10.16.9-7.26,1.3-10.75.73-6.14,1-8c0-.26,0-.89.1-1.87s.13-2,.2-3.16.13-2.17.2-3.16.1-1.6.1-1.87a42.94,42.94,0,0,1,1.4-6.81,30.57,30.57,0,0,0,1.2-6.8v-6.92a5.33,5.33,0,0,1,.79-1.8,10.92,10.92,0,0,1,1-1.6,74.89,74.89,0,0,0,1.58-9q.59-5,1-9c0-.26,0-1.1-.1-2.5a7.32,7.32,0,0,1,.1-2.5,2,2,0,0,1,.39-1,2.12,2.12,0,0,0,.4-.8,32.56,32.56,0,0,0,1.08-7q.11-3.19.69-7.6c0-.53.07-1.4.2-2.6s.3-2.5.49-3.9.4-2.7.6-3.9a20.59,20.59,0,0,1,.49-2.4,4.53,4.53,0,0,1,2.08-2.7,19.65,19.65,0,0,1,3.75-1.9,19.17,19.17,0,0,1,4.15-1.1,24.84,24.84,0,0,1,3.45-.3H74.05l.39.4.4.4a21,21,0,0,1,1.58,2.8,9.9,9.9,0,0,1,1,2.4,7.41,7.41,0,0,0,.29,1.5c.2.74.4,1.5.6,2.3s.36,1.6.49,2.4a3.3,3.3,0,0,0,.4,1.4,6,6,0,0,0,1.58,2.6,29.25,29.25,0,0,0,1,7.4c.66,2.54,1.45,5.1,2.37,7.7s1.85,5.17,2.77,7.7,1.71,4.94,2.37,7.2a3.22,3.22,0,0,1,.89.8,12.31,12.31,0,0,0,.89,1,11.14,11.14,0,0,1,.49,2.1,18.1,18.1,0,0,1,.3,2.11c.26.66.69,1.86,1.28,3.6s1,2.8,1.09,3.2a3.27,3.27,0,0,1,1,1.2c.39.66.65,1.13.79,1.4a2.72,2.72,0,0,1,.59,1.3,8.51,8.51,0,0,1,.2,1.1q.78,1.61,3,5.8t4.44,8.9q2.28,4.69,4.25,8.8c1.31,2.73,2.24,4.63,2.77,5.7.12.27.42,1,.88,2.2s.76,1.93.89,2.2a3.33,3.33,0,0,0,.3.9,3.28,3.28,0,0,0,.49.9,12.15,12.15,0,0,0,2.27-6,25,25,0,0,1,1.29-6,2.81,2.81,0,0,1,.39-.9,2.7,2.7,0,0,0,.4-.9,2.92,2.92,0,0,0,.39-1.2,8.81,8.81,0,0,0,.2-1.4q2.37-7.6,4.45-15.7t4.24-16.11c0-.26.1-1.1.3-2.5a13,13,0,0,1,.49-2.5,8.09,8.09,0,0,1,.4-1.4c.26-.8.52-1.63.79-2.5s.52-1.66.79-2.4.46-1.23.59-1.5a18.35,18.35,0,0,1,.3-2.1,19.2,19.2,0,0,0,.29-2.1,13,13,0,0,0,1.48-2.6,10.81,10.81,0,0,0,1.09-2.6,19.4,19.4,0,0,0,.69-1.9c.33-1,.69-2.06,1.09-3.2s.76-2.2,1.09-3.2a15.73,15.73,0,0,1,.69-1.9,7.37,7.37,0,0,1,.59-1.9c.39-1,.85-2.06,1.38-3.2s1-2.2,1.48-3.2.76-1.63.89-1.9a6.81,6.81,0,0,1,.4-1.3c.26-.73.52-1.46.79-2.2s.52-1.43.79-2.1.46-1.13.59-1.4a2.46,2.46,0,0,1,.59-.9c.4-.47.66-.7.79-.7a42.41,42.41,0,0,1,9.19-1h19.65a6.23,6.23,0,0,1,4.35,2.6,26.13,26.13,0,0,1,2.57,4.4l3.35,10.2a5.73,5.73,0,0,0,.3,1.4c.2.67.4,1.37.59,2.1s.36,1.47.5,2.2a3.18,3.18,0,0,0,.39,1.3,7.86,7.86,0,0,0,.69,1.6,8.4,8.4,0,0,1,.69,1.6,12.16,12.16,0,0,1,.1,3.1c-.06,1.67-.1,2.7-.1,3.1a105.39,105.39,0,0,0,4,20.11,176.73,176.73,0,0,1,4.74,20.1c0,.27,0,.77.1,1.5s.15,1.43.27,2.18.24,1.53.3,2.29c.08.94.12,1.48.12,1.63a17.08,17.08,0,0,0,.29,2.5l.6,3.4c.19,1.13.36,2.2.49,3.2a7.92,7.92,0,0,0,.39,1.9q2.78,15.79,4.74,31.4a250.8,250.8,0,0,1,2,31.6v11c-.79,0-2.2.07-4.24.2s-4.17.3-6.41.49-4.33.36-6.31.5-3.35.26-4.14.39h-1.38c-1.18,0-2.46,0-3.84-.1a15.33,15.33,0,0,1-3.94-.69,9.1,9.1,0,0,1-3.26-1.77A6.6,6.6,0,0,1,170.51,317.09Z"/><path class="cls-2" d="M13,318.44l-13,13v-4.27a3.25,3.25,0,0,1,.81-2L13,313.36Z"/><path class="cls-2" d="M14.84,323.68l.2-.2c.13,0,.2,0,.2-.1s.06-.1.2-.1a2.6,2.6,0,0,1,1.77.7,2.11,2.11,0,0,1,.79,1.67v.59L7,337.09a2,2,0,0,1-1.28.89,9.93,9.93,0,0,1-1.48.1,9.56,9.56,0,0,1-1.58-.1A4,4,0,0,1,1,337.09Z"/><path class="cls-2" d="M16,299.41v.4a11.14,11.14,0,0,1-.39,2.56,15.71,15.71,0,0,0-.4,1.78,3.41,3.41,0,0,1-.29.89,3.18,3.18,0,0,0-.3.88l-12,11.64a15.51,15.51,0,0,1,.3-2,10.28,10.28,0,0,1,.49-2A15.66,15.66,0,0,0,4,312a3.21,3.21,0,0,0,.19-1L16,299.22Z"/><path class="cls-2" d="M18.63,285.41a15.77,15.77,0,0,1-.3,2.26,11,11,0,0,1-.49,2.08,1.63,1.63,0,0,0-.2.79,1.74,1.74,0,0,1-.2.78,7.3,7.3,0,0,1-.39,1L6,303.36v-1.18c0-.79,0-1.71.1-2.77s.29-1.7.69-2Z"/><path class="cls-2" d="M20,273.57a9.35,9.35,0,0,1-2.56,6.9,16.06,16.06,0,0,1-1.68,1.88l-2.57,2.56c-.85.86-1.71,1.68-2.56,2.47S9.21,288.7,9,289a1.51,1.51,0,0,0-.89.39,1.49,1.49,0,0,1-.69.4c0-.13,0-.46-.1-1s-.09-.85-.09-1q0-1.18.09-2.07A2.9,2.9,0,0,1,8.16,284L20,272.19Z"/><path class="cls-2" d="M22,260.64a20.11,20.11,0,0,1-.2,2.5,3.62,3.62,0,0,1-.8,2.1l-12,12v-1.8c0-.66,0-1.4.1-2.2A4.05,4.05,0,0,1,10,271l12-11.6Z"/><polygon class="cls-2" points="24 245.49 24 250.77 11 263.77 11 258.49 24 245.49"/><path class="cls-2" d="M29.62,325l-12.8,13.2a3.13,3.13,0,0,1-1.9.8h-4.1l13.8-14Z"/><path class="cls-2" d="M26,232.86v.82c-.27.94-.61,2.2-1,3.75a10.65,10.65,0,0,1-.81,2.54L13,251.14v-5.28Z"/><path class="cls-2" d="M13,234c.27-.27.73-.8,1.4-1.6a10.8,10.8,0,0,0,1.2-1.6L27,219.39v2.4a8.71,8.71,0,0,1-2.6,6.4,12.11,12.11,0,0,0-1.8,1.7c-.8.87-1.67,1.73-2.6,2.6s-1.8,1.7-2.6,2.5a14.25,14.25,0,0,1-1.8,1.6,4,4,0,0,1-.7.5,4,4,0,0,0-.7.5,2.59,2.59,0,0,1-.6-1.3A2.59,2.59,0,0,0,13,235v-1Z"/><path class="cls-2" d="M29,207.87c0,.66,0,1.42-.1,2.27A2.46,2.46,0,0,1,28,212L16.37,223.85a7.45,7.45,0,0,0-.1-.88c-.06-.46-.09-.76-.09-.89q0-.79.09-2.07a2.49,2.49,0,0,1,.89-1.88L29,206.29Z"/><path class="cls-2" d="M30,198.49l-13,13V208c.13-.27.54-1,1.22-2.13a13,13,0,0,1,1.42-2.13l2.13-2.13,3.15-3.15q1.62-1.63,3-3.15a13.85,13.85,0,0,1,2-1.93Z"/><polygon class="cls-2" points="33 179.6 33 184.88 20 197.88 20 192.6 33 179.6"/><path class="cls-2" d="M35,167.91a14.69,14.69,0,0,1-.4,3.2,7,7,0,0,1-1.4,3l-11,11c0-.13,0-.53-.1-1.2s-.1-1.13-.1-1.4v-2.1a2.38,2.38,0,0,1,1-1.9l12-12Z"/><path class="cls-2" d="M40.33,325,28.51,337a2.22,2.22,0,0,1-1.68,1h-4l12.6-13Z"/><path class="cls-2" d="M73.66,263.8c.13,0,.19,0,.19.1s.07.1.19.1h.2a10,10,0,0,1,.38,1,6.86,6.86,0,0,1,.38,1.57v.79a3.3,3.3,0,0,1-.29.89,3.47,3.47,0,0,1-.47.89L63.53,280,62,281v-1.19c0-.79,0-1.71.1-2.76a3.45,3.45,0,0,1,.66-2.17L73.47,264Z"/><path class="cls-2" d="M70.26,256.37c.49.13.77.53.83,1.21s.1,1.15.1,1.39a.9.9,0,0,1-.1.38.84.84,0,0,0-.09.37v.56l-8,8V267a17.28,17.28,0,0,1,.19-2.32,3.36,3.36,0,0,1,.74-1.95Z"/><path class="cls-2" d="M64,285.63,76.27,273H77a5.75,5.75,0,0,1,.38,1.28,2.59,2.59,0,0,0,.58,1.28v1L64.77,290a7.91,7.91,0,0,1-.77-3.55Z"/><path class="cls-2" d="M67.22,247.53A3.34,3.34,0,0,1,69,250.68v.2l-4.14,4.34c.13-1.05.29-2.43.49-4.14A4.52,4.52,0,0,1,67.22,247.53Z"/><path class="cls-2" d="M67,294.09l13.22-13.62a3.82,3.82,0,0,1,1.78,3V284L68.58,297.44a2.5,2.5,0,0,1-1.19-1.38,4.86,4.86,0,0,1-.39-1.77Z"/><path class="cls-2" d="M70,302.49,82.27,290h.58q1,0,1.05.78a11.67,11.67,0,0,1,.1,1.56v1L71.73,306h-.39a1.07,1.07,0,0,1-1.15-1,9,9,0,0,1-.19-1.75Z"/><path class="cls-2" d="M73,310.65a.18.18,0,0,1,.2-.2L86.61,297a3.46,3.46,0,0,1,1,1.48c.39.86.66,1.42.79,1.68a1.88,1.88,0,0,1-.4,1,6,6,0,0,1-.59.79L76.55,312.82a2.61,2.61,0,0,1-.89.59,2.57,2.57,0,0,0-.88.59h-.6c-.52,0-.85-.33-1-1a9.34,9.34,0,0,1-.2-2Z"/><path class="cls-2" d="M77,318.55l13.61-13.61c0,.13.13.29.4.49s.39.36.39.49.33.73.59,1.38.33,1.06.2,1.19L78.78,321.9A3.34,3.34,0,0,1,77,318.75Z"/><path class="cls-2" d="M80,326.24l13.61-13.81c.53.53.79.93.79,1.19a3.22,3.22,0,0,1,.69,1.28,5.38,5.38,0,0,1,.3,1.09L81.78,329.4a2.94,2.94,0,0,1-1.78-3Z"/><path class="cls-2" d="M98,320.4l4.14,1L88.67,334.8a.81.81,0,0,1-.59.2H85.62a1.16,1.16,0,0,1-1.29-1Z"/><path class="cls-2" d="M113.27,322c-.4.4-1.07,1.1-2,2.1s-2,2-3.1,3.1-2.17,2.1-3.1,3.1a15.2,15.2,0,0,1-2,1.9,22.35,22.35,0,0,1-1.9,1.6,4.37,4.37,0,0,1-1.7,1c0,.13-.34.2-1,.2h-2.8a3.46,3.46,0,0,1-1.4-.2l12.8-12.8Z"/><polygon class="cls-2" points="124.25 322 111.25 335 105.97 335 118.97 322 124.25 322"/><path class="cls-2" d="M108.37,232.53a4.64,4.64,0,0,1,.3-1.28,11.52,11.52,0,0,1,.49-1.28,1.35,1.35,0,0,0,.3-.49,4.5,4.5,0,0,1,.29-.69,1.58,1.58,0,0,0,.2-.6l11-11v1a11.25,11.25,0,0,1-2.86,8q-2.86,3.06-6.41,6.41a7.82,7.82,0,0,1-1.19.79,3.43,3.43,0,0,1-1.38.6c-.13,0-.29-.2-.49-.6A2.27,2.27,0,0,1,108.37,232.53Z"/><path class="cls-2" d="M123.63,202.94a4.57,4.57,0,0,0,.09.69,4.32,4.32,0,0,1,.1.89,10.59,10.59,0,0,1-.29,2.66,5.34,5.34,0,0,1-1.48,2.27L111,220.5v-1a11.35,11.35,0,0,1,.69-3.45,6.68,6.68,0,0,1,1.87-3.06Z"/><path class="cls-2" d="M111,238.23l5-5V234a7.25,7.25,0,0,1-.38,1.83,25.46,25.46,0,0,1-1,2.6,12.41,12.41,0,0,1-1.25,2.31c-.45.64-.86,1-1.25,1-.64,0-1-.35-1.05-1.06s-.1-1.25-.1-1.64Z"/><path class="cls-2" d="M130,185.58a5.63,5.63,0,0,1-.3,1.38c-.19.66-.42,1.38-.69,2.17a16.89,16.89,0,0,1-.88,2.17,6.8,6.8,0,0,1-.69,1.19l-10.07,10.45c.13-1.05.4-2.43.79-4.14a7.72,7.72,0,0,1,1.78-3.75L130,185Z"/><path class="cls-2" d="M136.63,167.23a6.42,6.42,0,0,1-.4,1.78c-.26.79-.59,1.64-1,2.56s-.79,1.81-1.19,2.67-.66,1.41-.79,1.67a18.37,18.37,0,0,1-1.67,2c-.86.92-1.78,1.87-2.77,2.86s-1.94,1.87-2.86,2.66a24.72,24.72,0,0,1-2,1.58v-.79c.39-1,.92-2.4,1.58-4a24.75,24.75,0,0,0,1-2.66Z"/><path class="cls-2" d="M161,261.83l-12,12V273a12.93,12.93,0,0,1,.71-2.44c.48-1.35.78-2.24.92-2.64a4.6,4.6,0,0,1,1-1.83l9.36-9.36Z"/><path class="cls-2" d="M161.63,267.24a7.51,7.51,0,0,1,.79,3.36,3.53,3.53,0,0,1-.3,1.58,6,6,0,0,1-1.48,1.57c-.79.93-1.78,2-3,3.26s-2.37,2.47-3.55,3.65L149.79,285H149v-5.13Z"/><polygon class="cls-2" points="164 277.12 164 282.25 151.37 294.88 150.58 290.54 164 277.12"/><polygon class="cls-2" points="165 286.92 165 292.2 152 305.2 152 299.92 165 286.92"/><path class="cls-2" d="M165,299a1.18,1.18,0,0,1,1,1.32V302a2,2,0,0,0-.48.39c-.07.13.48.4.48.4v.3l-14,14V312Z"/><path class="cls-2" d="M165.63,309.28a2.75,2.75,0,0,1,.88,1.38,9.48,9.48,0,0,1,.1,1.58,9.93,9.93,0,0,1-.1,1.48,2,2,0,0,1-.88,1.28L153,327.82V321.9Z"/><path class="cls-2" d="M154,332.82l13.27-13.27a11.9,11.9,0,0,1,.86,1.16,13.11,13.11,0,0,1,.87,1.34v.77l-13.27,13.27a2.88,2.88,0,0,1-1.25-1.34A4,4,0,0,1,154,333Z"/><path class="cls-2" d="M159.38,246.29a5.26,5.26,0,0,1,.52,1.65,17.11,17.11,0,0,1,.1,1.86v1l-6,6.41v-1.86a13.17,13.17,0,0,1,.41-2.59,19.44,19.44,0,0,0,.42-2,20.1,20.1,0,0,1,2.17-2.38A21,21,0,0,1,159.38,246.29Z"/><path class="cls-2" d="M172.8,325h1a11.77,11.77,0,0,1,1.7.1,2.59,2.59,0,0,1,1.5,1.1L164,339h-4v-.8Z"/><polygon class="cls-2" points="188.37 326 175.37 339 170.29 339 183.29 326 188.37 326"/><path class="cls-2" d="M194.94,325H200v1.18L188.88,337a6.57,6.57,0,0,1-3.14,1.48,16.71,16.71,0,0,1-3.74.5v-1Z"/><path d="M367.93,191.6a2.26,2.26,0,0,0-1.28-.5,92.18,92.18,0,0,0-16.48-1.67q-8.39-.1-15.88-.1a2.92,2.92,0,0,0-2.46.89,4.7,4.7,0,0,0-.89,2.27,26.82,26.82,0,0,1-.4,3.55,29.17,29.17,0,0,0-.39,3.35q-3.94-2.76-7.69-5A26.94,26.94,0,0,0,314,191.1L310,190q-2.56-.69-2.76-.69H284.58c-.27,0-1,.07-2.07.2a5.71,5.71,0,0,0-2.27.59,53.53,53.53,0,0,0-8.78,3.94,84.84,84.84,0,0,0-9.08,5.82,77,77,0,0,0-8.28,7,33.16,33.16,0,0,0-6,7.69,100.83,100.83,0,0,0-8.19,20.91,88.88,88.88,0,0,0-2.66,22.3q0,6.51.49,11.93a52.34,52.34,0,0,0,2,10.36,44.69,44.69,0,0,0,4.14,9.57,65.79,65.79,0,0,0,6.81,9.57l3.55,3.55a16.65,16.65,0,0,0,4.34,3.15c.65.4,1.87,1,3.65,1.88s3.61,1.77,5.52,2.76,3.75,1.91,5.52,2.76,3,1.42,3.65,1.68q6.51.79,12.63,1.77a77.68,77.68,0,0,0,12.43,1,39.29,39.29,0,0,0,15.19-2.86,82.67,82.67,0,0,0,13.81-7.4h.79v1a11.15,11.15,0,0,1-.4,1.58,9,9,0,0,0-.39,1.77v.59c.13.66.3,1.65.49,3s.3,2,.3,2.17l1,1c.65,0,1.8.06,3.45.2s3.42.23,5.33.29l5.42.2c1.71.07,2.89.1,3.55.1.92,0,2.2-.07,3.85-.2s3.25-.29,4.83-.49,3-.4,4.24-.59a11.24,11.24,0,0,0,2.27-.5l2.37-1.18V219.51a74.41,74.41,0,0,0,.89-9.07c.06-2.63.1-5.72.1-9.27v-8.68A8.88,8.88,0,0,0,367.93,191.6ZM333.5,250.09c0,2.63-.13,5.4-.39,8.29a44.33,44.33,0,0,1-1.58,8.38,36.24,36.24,0,0,1-3.25,7.7,17.5,17.5,0,0,1-5.63,6,35.36,35.36,0,0,1-8.68,4.44,27.56,27.56,0,0,1-9.27,1.68,24.41,24.41,0,0,1-7.5-1.28,17.81,17.81,0,0,1-6.7-3.85c-.53-.52-1.29-1.31-2.27-2.37s-2-2.07-3-3-1.88-1.85-2.66-2.57-1.26-1.15-1.39-1.28a4.93,4.93,0,0,0-.59-1.28l-1.28-2.37c-.46-.86-.92-1.74-1.38-2.66s-.82-1.71-1.09-2.37a24.71,24.71,0,0,1-1.38-5.33,39.41,39.41,0,0,1-.39-5.52,55.92,55.92,0,0,1,1.68-14,28.2,28.2,0,0,1,7-12.23c.66-.66,1.71-1.74,3.16-3.26s2.3-2.4,2.56-2.66a14.35,14.35,0,0,1,6.71-2.86,52.85,52.85,0,0,1,7.3-.49,25,25,0,0,1,12.72,3.35A41.43,41.43,0,0,1,326.6,229a3.4,3.4,0,0,1,1,1.19c.39.66.65,1.12.79,1.38a11.73,11.73,0,0,0,1,2c.53.92,1.05,1.91,1.58,3s1,2.07,1.48,3.06a19.23,19.23,0,0,0,1.08,2.07Z"/><path class="cls-2" d="M234.07,257.79v4.14l-13.61,13.41v-2a17.92,17.92,0,0,0-.1-2.07,2,2,0,0,1,.69-1.68l12-11.83Z"/><path class="cls-2" d="M234.07,250.88l-13,12.63v-2a18.7,18.7,0,0,1,.1-2,2.62,2.62,0,0,1,1.09-1.77l11.83-12Z"/><path class="cls-2" d="M234.07,268.64a8.55,8.55,0,0,0,.4,1.77,9,9,0,0,1,.39,1.78v.59l-13.81,13.81v-5.13Z"/><path class="cls-2" d="M222.24,291.52l12.62-12.62.4-.2.19.2c.27,0,.46.33.6,1a13.46,13.46,0,0,0,.39,1.58v.79a12.78,12.78,0,0,1-.79,1.28c-.39.59-.66,1-.79,1.28-.79.66-1.74,1.55-2.86,2.67s-2.2,2.24-3.25,3.35-2,2.07-2.77,2.86a5.32,5.32,0,0,1-1.38,1.19l-1.77.79c-.27-.66-.5-1.25-.69-1.78a5,5,0,0,1-.3-1.78Z"/><path class="cls-2" d="M237.23,230.76c-.13.53-.39,1.51-.79,3a11.09,11.09,0,0,1-1,2.76,1.76,1.76,0,0,0-.19.79,1.78,1.78,0,0,1-.2.79,3.27,3.27,0,0,0-.2,1L224.6,249.3h-1c.13-.26.42-1.11.88-2.56s.76-2.3.89-2.57a14.29,14.29,0,0,1,.89-1.87,10,10,0,0,1,.89-1.48Z"/><path class="cls-2" d="M224.41,301.19c0-.13.06-.2.19-.2L238,287.18a7.26,7.26,0,0,1,1,3.55v.79l-12.83,12.63H226a1.24,1.24,0,0,1-1.28-1,5.67,5.67,0,0,1-.29-1.58Z"/><path class="cls-2" d="M241.57,294.88h.79c.13.13.42.39.89.79a3.56,3.56,0,0,1,.88,1v.79l-13.61,13.61L228,308.49Z"/><path class="cls-2" d="M233.68,315l.2-.4a.55.55,0,0,1,.19-.39L247.49,301a2.31,2.31,0,0,1,1.58,2.37v.79l-13.62,13.41A2.65,2.65,0,0,1,233.68,315Z"/><path class="cls-2" d="M239,320.13l13.41-13.42H253c1.32,0,2,.86,2,2.57v.79c-.4.39-1.12,1.12-2.17,2.17s-2.14,2.17-3.26,3.35-2.2,2.3-3.26,3.35l-2.17,2.17a6.9,6.9,0,0,1-1.38,1,4.17,4.17,0,0,1-1.18.59,4,4,0,0,1-1.18-.59,6.9,6.9,0,0,1-1.38-1l-.2-.59Z"/><path class="cls-2" d="M246.7,324.47l13.41-13.42,3.36,1.38-13.61,13.81h-.79a11.82,11.82,0,0,1-1.58-.19c-.79-.14-1.19-.53-1.19-1.19Z"/><path class="cls-2" d="M266.82,315h.79a10.36,10.36,0,0,1,1.68.2,1.12,1.12,0,0,1,1.08,1.18.54.54,0,0,1-.19.39l-13.42,13.62-3.55-1.78Z"/><path class="cls-2" d="M275.11,318.55l4.34.79L266.82,332a2.75,2.75,0,0,1-1.38.88,9.48,9.48,0,0,1-1.58.1,6.72,6.72,0,0,1-1.18-.1,1.44,1.44,0,0,1-1-.88Z"/><path class="cls-2" d="M284.58,320.13h1.18a7,7,0,0,1,3.75,1c-.39.4-1.08,1.12-2.07,2.17s-2.07,2.14-3.26,3.26-2.3,2.2-3.35,3.25L278.66,332a6.24,6.24,0,0,1-3.06,1.87,18.68,18.68,0,0,1-3.65.3V333Z"/><polygon class="cls-2" points="300.75 321.12 286.94 334.53 282.01 334.53 295.63 321.12 300.75 321.12"/><path class="cls-2" d="M298.19,221.29,287,232.53a5.74,5.74,0,0,1-2.08.89,11.43,11.43,0,0,1-2.07.5v-.79a14.79,14.79,0,0,1,.79-1.29,3.21,3.21,0,0,1,1-1.08c.39-.4.95-1,1.67-1.78s1.48-1.58,2.27-2.36l2.17-2.17,1.38-1.39a7.9,7.9,0,0,1,4.74-1.77Z"/><path class="cls-2" d="M304.7,220.5l4.34,1.18L295.63,234.9h-3a1.4,1.4,0,0,1-1.38-1Z"/><path class="cls-2" d="M309.44,320.92a7.5,7.5,0,0,1,1.08.1,8.88,8.88,0,0,0,1.09.09l-10.26,10.07a8.85,8.85,0,0,1-3.16,1.77,10.85,10.85,0,0,1-3.55.79h-.79l11.84-11.84a2.83,2.83,0,0,1,1.77-.88A18.75,18.75,0,0,1,309.44,320.92Z"/><path class="cls-2" d="M313.38,223.06H314a5.2,5.2,0,0,0,1.38.89,2.71,2.71,0,0,1,1.19.89l-13.42,13.41-.59.2a3.43,3.43,0,0,1-3-2Z"/><path class="cls-2" d="M320.09,228.19h.2c1.58,0,2.36.6,2.36,1.78v.79L309,244.17l-2.56-2.56Z"/><path class="cls-2" d="M325.22,233.92a2.9,2.9,0,0,1,1.77,2.56,4.51,4.51,0,0,1-1,2.56c-.4.4-1.09,1.12-2.07,2.17s-2,2.11-3.06,3.16-2.07,2-3.06,3-1.68,1.58-2.07,2a3.08,3.08,0,0,1-1.09,1,2.92,2.92,0,0,1-1.28.59l-1.77-3.35Z"/><path class="cls-2" d="M327.78,316.77,315.16,329.4H314a10,10,0,0,1,2.77-7.1,59.49,59.49,0,0,1,5.91-5.53,20.4,20.4,0,0,1,1.88-1.18,14.33,14.33,0,0,0,2.07-1.38,1.31,1.31,0,0,0,.59-.1,1.46,1.46,0,0,1,.59-.1Z"/><path class="cls-2" d="M315.75,255.22l13.41-13.61a1.15,1.15,0,0,1,1,1.28v2.86l-12.63,12.63a3,3,0,0,1-1.77-3Z"/><path class="cls-2" d="M329.16,321.11l4.15,1.78-11.64,11.64a4.37,4.37,0,0,1-3,1.09c-1.32.06-2.3.09-3,.09v-1.18Z"/><path class="cls-2" d="M327.78,266.07v1a54.73,54.73,0,0,1-4.24,7.69,11.57,11.57,0,0,1-7,4.94v-2.57Z"/><path class="cls-2" d="M330.15,257l-12.63,12.62a11.53,11.53,0,0,0-.09-1.18,9.51,9.51,0,0,1-.1-1.18,16.05,16.05,0,0,1,.1-1.88,3.73,3.73,0,0,1,.88-1.87l11.84-11.64Z"/><path class="cls-2" d="M344.55,322.69l-12.82,12.83a2.4,2.4,0,0,1-1.68.79h-4l13.61-13.62Z"/><path class="cls-2" d="M355.4,322.69l-12.62,12.83h-4.94l11.84-11.84a2.21,2.21,0,0,1,1.68-1h4Z"/><path d="M421.3,316.58q.39-21.9.09-43.8T419.52,229a10.74,10.74,0,0,0-2.37-.29q-1.77-.1-3.84-.3c-1.39-.13-2.67-.23-3.85-.3s-2-.09-2.57-.09a17.62,17.62,0,0,1-2.07-.3c-1.12-.2-1.81-.62-2.07-1.28a92.09,92.09,0,0,1-1.48-12.63q-.3-6.31-.29-12.62a12.34,12.34,0,0,1,.39-3.46,5.89,5.89,0,0,1,2.17-2.66q4.14-.39,8.78-.79t9-1v-4.34q0-5.91-.6-12.13t-.59-12.53c0-1.44,0-3.09.1-4.93a13,13,0,0,1,1.09-4.93,91.38,91.38,0,0,1,11.54-.79h19.63l1.77.79c0,.13.13,1.05.4,2.76a28.86,28.86,0,0,1,.39,4.14q0,1.78.3,6.42c.2,3.09.39,6.41.59,10s.39,6.87.59,10,.3,5.23.3,6.41h19.53v32.36l-.4.39a.53.53,0,0,1-.39.2.18.18,0,0,0-.2.2,23.67,23.67,0,0,1-8.09,1.87q-4.53.3-7.89.69V300.6c0,1.31-.07,2.93-.2,4.83s-.23,3.75-.29,5.52-.23,4-.49,6.61l-1.58.79h-29.6a21.62,21.62,0,0,1-2.46-.29,19.84,19.84,0,0,1-2.47-.5C421.62,317.3,421.3,317,421.3,316.58Z"/><path class="cls-2" d="M396.83,202.15a.4.4,0,0,0,.1.3.38.38,0,0,1,.1.29,2.14,2.14,0,0,1-.59,1.58l-1.58,1.58a19.05,19.05,0,0,1-1.58,1.87c-.79.86-1.61,1.72-2.46,2.57l-2.47,2.47-1.78,1.77a7.73,7.73,0,0,1-1.18.79A3.52,3.52,0,0,1,384,216v-.59a2.45,2.45,0,0,0,.59-1,3.22,3.22,0,0,0,.2-.79L396.64,202Z"/><polygon class="cls-2" points="397.82 209.45 397.82 214.58 384.8 227.21 384.8 222.08 397.82 209.45"/><path class="cls-2" d="M384.8,232.93l13-12.63h.59v4.34l-12.62,12.63a1.15,1.15,0,0,1-1-1.28v-3.06Z"/><path class="cls-2" d="M386.57,243l13.62-13.22,3.35,1.78-13.61,13.22h-.79a6.12,6.12,0,0,0-1.28-.4,7,7,0,0,0-1.29-.2V243Z"/><path class="cls-2" d="M414.39,232.14c-.39.39-1.08,1.12-2.07,2.17s-2.07,2.17-3.26,3.35-2.3,2.27-3.35,3.26-1.77,1.68-2.17,2.07a8.21,8.21,0,0,1-2.37,1.87,8.71,8.71,0,0,1-2.76.3,6.16,6.16,0,0,1-1.28-.2,7.46,7.46,0,0,0-1.09-.19l12.63-12.63Z"/><path class="cls-2" d="M417,167a11.34,11.34,0,0,0,.09,1.18,9.66,9.66,0,0,1,.1,1.18,18.75,18.75,0,0,1-.1,2,2.83,2.83,0,0,1-.88,1.77l-12.63,12.63v-5.13Z"/><polygon class="cls-2" points="416.17 236.48 416.17 241.61 403.54 254.24 403.54 249.11 416.17 236.48"/><path class="cls-2" d="M416.17,247.33a1.15,1.15,0,0,1,1,1.28v1.48c0,.27,0,.43-.1.5a.82.82,0,0,0-.09.49v.59l-13.42,13.42V260Z"/><polygon class="cls-2" points="416.96 158.75 416.96 160.53 404.33 173.15 404.33 171.38 416.96 158.75"/><path class="cls-2" d="M417,178.08a16.41,16.41,0,0,1,.59,2.07,12.54,12.54,0,0,1,.39,2.27,2,2,0,0,1-.39.79,7.42,7.42,0,0,1-.59.79c-.27.27-.69.73-1.29,1.38s-1.21,1.35-1.87,2.07-1.32,1.39-2,2-1.12,1-1.38,1.28a2.78,2.78,0,0,1-1.39.59,10.28,10.28,0,0,1-1.18.2h-1a7,7,0,0,1-1.28-.2,2.59,2.59,0,0,1-1.28-.59Z"/><polygon class="cls-2" points="416.96 258.38 416.96 263.51 404.33 276.13 404.33 271 416.96 258.38"/><path class="cls-2" d="M417,269.43c.65.13,1,.46,1,1v1.38a16.05,16.05,0,0,1-.1,1.88,2.78,2.78,0,0,1-.88,1.67L406.11,286.2h-1.78v-4.15Z"/><path class="cls-2" d="M417,315a15.36,15.36,0,0,1,.59,2.07,13.83,13.83,0,0,1,.39,2.07,2,2,0,0,1-.39.79,7,7,0,0,0-.59,1L406.11,332l-1.78.78v-4.14a2.24,2.24,0,0,1,1-1.77Z"/><polygon class="cls-2" points="417.94 280.47 417.94 285.41 405.32 298.03 405.32 293.1 417.94 280.47"/><polygon class="cls-2" points="417.94 291.32 417.94 296.26 405.32 308.88 405.32 303.95 417.94 291.32"/><polygon class="cls-2" points="417.94 303.16 417.94 308.29 405.32 320.92 405.32 315.79 417.94 303.16"/><polygon class="cls-2" points="422.28 321.51 426.23 321.51 426.23 322.69 413.6 335.32 409.26 335.32 409.26 334.53 422.28 321.51"/><polygon class="cls-2" points="417.94 190.71 416.17 190.71 417.94 188.93 417.94 190.71"/><polygon class="cls-2" points="437.47 322.69 424.85 335.32 419.52 335.32 432.34 322.69 437.47 322.69"/><polygon class="cls-2" points="449.31 322.69 436.29 335.32 431.36 335.32 443.98 322.69 449.31 322.69"/><path d="M506.52,307.7q0-9.07.4-18.15t.39-18.15v-4.54a3.62,3.62,0,0,1-.69-1.28,6.44,6.44,0,0,1-.1-1.28v-.79a2.6,2.6,0,0,1,.4-.89,2.71,2.71,0,0,0,.39-.89,15.85,15.85,0,0,0-.39-2.17,14.5,14.5,0,0,1-.4-2.17V255q0-3.93.2-11.93t.39-18.05q.19-10.06.5-21.21t.59-21.21q.3-10.06.49-18.05t.4-11.74a1.88,1.88,0,0,1,1.58-1.18,4.61,4.61,0,0,0,1.77-.59,21.27,21.27,0,0,1,2.37-.4c1.05-.13,1.64-.2,1.77-.2h24.67a2.78,2.78,0,0,1,2,1.09,4.52,4.52,0,0,1,1.18,2.07,11,11,0,0,1,.49,2.27c.2,1.25.36,2.2.5,2.86a17.21,17.21,0,0,1,.59,3.75c.13,1.71.2,2.7.2,3,0,1.31.1,3.62.29,6.9s.4,6.78.59,10.46.4,7.17.6,10.45.29,5.6.29,6.91l.79,2.56a56.57,56.57,0,0,0,6.31-3.45,57.63,57.63,0,0,1,6.32-3.45,27.25,27.25,0,0,1,9.07-2.27q4.54-.3,9.67-.3a47.72,47.72,0,0,1,12.13,1.39,55.12,55.12,0,0,1,11.54,4.73c.27.13.69.36,1.29.69a6.36,6.36,0,0,1,1.28.89q.78.79,2.07,2.07c.85.86,1.71,1.74,2.57,2.66s1.64,1.75,2.36,2.47l1.28,1.28c.79,1.58,1.42,2.86,1.88,3.85l1.38,3c.46,1,.82,1.74,1.08,2.27s.4,1.64.79,3a19.71,19.71,0,0,1,.6,2.17,10.86,10.86,0,0,1,.29,2.26c.07,1.12.17,2.31.3,3.56s.23,2.43.29,3.55a15,15,0,0,0,.3,2.46c0,.66,0,2.27-.1,4.84s-.1,5.32-.1,8.28v8.29a34.08,34.08,0,0,0,.2,4.83c0,.53,0,1.78.1,3.75s.13,4.08.2,6.31.12,4.38.19,6.42.1,3.32.1,3.84V304c0,1.05,0,2.24-.1,3.55s-.16,2.7-.29,4.15-.2,3.22-.2,4.93L618,320.13H595.2a77.15,77.15,0,0,1-12.72-1c-.4,0-.59-.26-.59-.79v-.19q0-14.61,1.18-28.81t1.18-28.41V248.12a15.22,15.22,0,0,1-.39-2.57,6.55,6.55,0,0,0-.59-2.56q-.21-.78-.69-2.37l-1-3.15c-.33-1.05-.66-2-1-2.86a6.33,6.33,0,0,1-.49-1.68,13.43,13.43,0,0,1-2-1.68c-1.06-1-1.85-1.74-2.37-2.27a12.93,12.93,0,0,0-1.38-1.08,4.3,4.3,0,0,0-1.18-.69H563.14a14.47,14.47,0,0,0-3.35,1.77,25.28,25.28,0,0,0-5.43,5.53,33.79,33.79,0,0,0-3.45,6.21,45.48,45.48,0,0,0-2.27,6.91c-.59,2.43-1.15,4.9-1.67,7.39a10.78,10.78,0,0,1-.4,1.88c-.26,1-.56,2-.89,3.16s-.62,2.17-.88,3.15a9.86,9.86,0,0,0-.4,1.88,10.89,10.89,0,0,1-.39,2.36,11.41,11.41,0,0,0-.4,2q-.2,1.19-.39,3.45c-.14,1.51-.3,3-.5,4.54s-.36,2.86-.49,4a9,9,0,0,1-.39,2.17c0,1.32,0,3.59-.1,6.81s-.13,6.61-.2,10.16-.13,6.94-.2,10.16-.09,5.49-.09,6.8a17.36,17.36,0,0,1-1,1.68,1.83,1.83,0,0,1-1.58.89H508.3l-1.78-1.78Z"/><path class="cls-2" d="M489.36,332.56a1.34,1.34,0,0,1,.2-.59l12.62-12.83a4.66,4.66,0,0,1,1.78,3.55v.59l-12.63,12.63-.2.2c0,.13-.06.2-.19.2a1.27,1.27,0,0,1-1.38-1.19,11.56,11.56,0,0,1-.2-2Z"/><path class="cls-2" d="M502.18,301.39,489.56,314v-3.94a2.45,2.45,0,0,1,.79-1.78l11.83-12Z"/><polygon class="cls-2" points="502.18 308.29 502.18 313.22 489.56 325.85 489.56 320.92 502.18 308.29"/><polygon class="cls-2" points="503.37 204.52 503.37 209.45 490.35 222.08 490.35 217.15 503.37 204.52"/><polygon class="cls-2" points="503.37 215.96 503.37 221.09 490.35 233.91 490.35 228.98 503.37 215.96"/><path class="cls-2" d="M503.37,227.21v2.56c0,.66,0,1.35-.1,2.07a3.4,3.4,0,0,1-1.09,2.08l-10.85,10.85h-1v-4.94Z"/><polygon class="cls-2" points="503.37 239.04 503.37 244.17 490.35 256.8 490.35 251.67 503.37 239.04"/><polygon class="cls-2" points="503.37 249.9 503.37 255.02 490.35 267.65 490.35 262.52 503.37 249.9"/><polygon class="cls-2" points="503.37 261.73 503.37 266.86 490.35 279.49 490.35 274.36 503.37 261.73"/><path class="cls-2" d="M503.37,284.42v2.37a18.36,18.36,0,0,1-.1,1.87,3.35,3.35,0,0,1-1.09,1.88l-11.83,11.83v-5.32Z"/><polygon class="cls-2" points="503.96 180.65 503.96 186.57 491.33 199.39 491.33 193.27 503.96 180.65"/><path class="cls-2" d="M504,192.49v1.57c0,.66,0,1.42-.1,2.27a5.72,5.72,0,0,1-.49,2.07l-12,11.84v-5.13Z"/><path class="cls-2" d="M504,271.79v2.57a27,27,0,0,1-.1,2.86,5.7,5.7,0,0,1-1.68,2.27c-.39.39-1.08,1.12-2.07,2.17s-2.07,2.17-3.25,3.35l-3.36,3.36-2.17,2.17v-6.12Z"/><polygon class="cls-2" points="504.75 156.97 504.75 162.1 492.12 174.93 492.12 169.6 504.75 156.97"/><path class="cls-2" d="M504.75,168.81a7.53,7.53,0,0,0,.1.89c.06.46.09.76.09.89,0,.52,0,1.25-.09,2.17a3.34,3.34,0,0,1-.89,2.17l-11.84,11.64v-5.13Z"/><path class="cls-2" d="M514.22,324.07l-12.63,13c-.26,0-1,.07-2.17.2s-2.17.26-3,.4h-1l13.62-13.62Z"/><polygon class="cls-2" points="525.07 324.07 512.44 337.1 507.31 337.1 519.94 324.07 525.07 324.07"/><path class="cls-2" d="M536.12,324.07l-11.84,11.84A2.61,2.61,0,0,1,522.7,337a15.89,15.89,0,0,1-1.78.09h-1.77l12.63-13Z"/><path class="cls-2" d="M568.08,230.36h1.57c.27,0,.76,0,1.48.1a1.31,1.31,0,0,1,1.29,1.09L558.8,244.77H558c-.26-.13-.69-.4-1.28-.79a9.35,9.35,0,0,1-1.28-1Z"/><path class="cls-2" d="M575.77,234.7h.39a1.1,1.1,0,0,1,1.19,1,8.49,8.49,0,0,1,.19,1.58v.79l-12.62,12.82h-1c-.26-.39-.62-.92-1.08-1.58s-.63-1.05-.5-1.18Z"/><path class="cls-2" d="M578.33,316.58,565.71,329.4v-2.17c0-.66,0-1.32-.1-2a2.46,2.46,0,0,1,.89-2l11.83-11.83Z"/><path class="cls-2" d="M565.71,256l13.61-13.61a2.3,2.3,0,0,1,.79,1.58v3.35L567.48,260a2.42,2.42,0,0,1-1.38-1.58,7,7,0,0,1-.39-2.17Z"/><polygon class="cls-2" points="583.27 323.29 570.64 335.91 565.71 335.91 580.11 321.51 583.27 323.29"/><path class="cls-2" d="M580.11,288a17.53,17.53,0,0,1-.39,2.57,16.61,16.61,0,0,0-.4,2.56,3.07,3.07,0,0,0-.49.89c-.2.46-.37.69-.5.69l-10.85,11.05h-1v-.79c.13-.79.26-1.88.39-3.26s.33-2.07.59-2.07L579.32,288Z"/><path class="cls-2" d="M579.32,299.61V304a2.27,2.27,0,0,1-1,1.78L566.5,317.56v-5.13Z"/><path class="cls-2" d="M580.11,281.26l-12,11.84h-1a20.76,20.76,0,0,1,.29-2.86,4.92,4.92,0,0,1,.7-2.27l12.62-12.63Z"/><polygon class="cls-2" points="580.7 252.46 580.7 257.39 568.08 270.02 568.08 265.09 580.7 252.46"/><polygon class="cls-2" points="580.7 263.51 580.7 268.64 568.08 281.26 568.08 276.13 580.7 263.51"/><path class="cls-2" d="M589.38,323.28h.79a3.63,3.63,0,0,0,1,.3,3.34,3.34,0,0,1,1,.3,3.79,3.79,0,0,0,1.19.19v1a6.3,6.3,0,0,1-1.19,1.48c-.78.85-1.77,1.84-3,3L585.54,333c-1.26,1.19-2.27,2.17-3.06,3-.27.26-.69.62-1.28,1.09a3.51,3.51,0,0,1-1.09.69c-.39,0-1.15-.07-2.27-.2a8.3,8.3,0,0,1-2.07-.4Z"/><path class="cls-2" d="M600.23,324.07h5.13l-12.62,13a2.41,2.41,0,0,0-.89.2,8.38,8.38,0,0,0-.89.4h-.79a5.72,5.72,0,0,1-1.38-.3,6.89,6.89,0,0,0-1.18-.3Z"/><path class="cls-2" d="M615.42,324.07c-.39.4-1.08,1.15-2.07,2.27s-2.07,2.27-3.25,3.45-2.31,2.3-3.36,3.36l-2.17,2.17a6.32,6.32,0,0,1-2.07,1.58,9.36,9.36,0,0,1-2.27.19h-1.77l12.82-13Z"/></g></g></g></svg>